<?xml version="1.0" encoding="UTF-8" standalone="no"?>
<!DOCTYPE svg PUBLIC "-//W3C//DTD SVG 1.1//EN"
 "http://www.w3.org/Graphics/SVG/1.1/DTD/svg11.dtd">
<!-- Generated by graphviz version 2.38.0 (20140413.2041)
 -->
<!-- Title: g Pages: 1 -->
<svg width="849pt" height="178pt"
 viewBox="0.00 0.00 849.00 178.00" xmlns="http://www.w3.org/2000/svg" xmlns:xlink="http://www.w3.org/1999/xlink">
<g id="graph0" class="graph" transform="scale(1 1) rotate(0) translate(4 174)">
<title>g</title>
<polygon fill="white" stroke="none" points="-4,4 -4,-174 845,-174 845,4 -4,4"/>
<!-- params1 -->
<g id="node1" class="node"><title>params1</title>
<polygon fill="none" stroke="black" points="0,-33.5 0,-111.5 93,-111.5 93,-33.5 0,-33.5"/>
<text text-anchor="middle" x="46.5" y="-94.7" font-family="Times New Roman,serif" font-size="16.00">X</text>
<polyline fill="none" stroke="black" points="0,-85.5 93,-85.5 "/>
<text text-anchor="middle" x="46.5" y="-68.7" font-family="Times New Roman,serif" font-size="16.00">n_neighbors</text>
<polyline fill="none" stroke="black" points="0,-59.5 93,-59.5 "/>
<text text-anchor="middle" x="46.5" y="-42.7" font-family="Times New Roman,serif" font-size="16.00">metric</text>
</g>
<!-- knn -->
<g id="node2" class="node"><title>knn</title>
<polygon fill="lightgrey" stroke="black" points="129,-54.5 129,-90.5 218,-90.5 218,-54.5 129,-54.5"/>
<text text-anchor="middle" x="173.5" y="-68.7" font-family="Times New Roman,serif" font-size="16.00">kNN model</text>
</g>
<!-- params1&#45;&gt;knn -->
<g id="edge1" class="edge"><title>params1:f0&#45;&gt;knn:f0</title>
<path fill="none" stroke="black" d="M93,-98.5C98.7364,-98.5 108.468,-96.079 119.221,-92.7146"/>
<polygon fill="black" stroke="black" points="120.45,-95.9953 128.86,-89.5523 118.267,-89.3441 120.45,-95.9953"/>
</g>
<!-- params1&#45;&gt;knn -->
<g id="edge2" class="edge"><title>params1:f1&#45;&gt;knn:f0</title>
<path fill="none" stroke="black" d="M93,-72.5C101.337,-72.5 110.16,-72.5 118.79,-72.5"/>
<polygon fill="black" stroke="black" points="118.791,-76.0001 128.791,-72.5 118.791,-69.0001 118.791,-76.0001"/>
</g>
<!-- params1&#45;&gt;knn -->
<g id="edge3" class="edge"><title>params1:f2&#45;&gt;knn:f0</title>
<path fill="none" stroke="black" d="M93,-46.5C98.7364,-46.5 108.468,-48.921 119.221,-52.2854"/>
<polygon fill="black" stroke="black" points="118.267,-55.6559 128.86,-55.4477 120.45,-49.0047 118.267,-55.6559"/>
</g>
<!-- params2 -->
<g id="node3" class="node"><title>params2</title>
<polygon fill="none" stroke="black" points="292.5,-46.5 292.5,-98.5 346.5,-98.5 346.5,-46.5 292.5,-46.5"/>
<text text-anchor="middle" x="319.5" y="-81.7" font-family="Times New Roman,serif" font-size="16.00">d</text>
<polyline fill="none" stroke="black" points="292.5,-72.5 346.5,-72.5 "/>
<text text-anchor="middle" x="319.5" y="-55.7" font-family="Times New Roman,serif" font-size="16.00">ind</text>
</g>
<!-- knn&#45;&gt;params2 -->
<g id="edge4" class="edge"><title>knn:f0&#45;&gt;params2:f0</title>
<path fill="none" stroke="black" d="M218.199,-79.7602C237.2,-82.3309 259.898,-84.7407 281.396,-85.3516"/>
<polygon fill="black" stroke="black" points="281.45,-88.8527 291.5,-85.5 281.553,-81.8534 281.45,-88.8527"/>
</g>
<!-- knn&#45;&gt;params2 -->
<g id="edge5" class="edge"><title>knn:f0&#45;&gt;params2:f1</title>
<path fill="none" stroke="black" d="M218.199,-65.2398C237.2,-62.6691 259.898,-60.2593 281.396,-59.6484"/>
<polygon fill="black" stroke="black" points="281.553,-63.1466 291.5,-59.5 281.45,-56.1473 281.553,-63.1466"/>
</g>
<!-- qij -->
<g id="node5" class="node"><title>qij</title>
<polygon fill="lightgrey" stroke="black" points="421,-106.5 421,-142.5 513,-142.5 513,-106.5 421,-106.5"/>
<text text-anchor="middle" x="467" y="-120.7" font-family="Times New Roman,serif" font-size="16.00">calculate_Q</text>
</g>
<!-- params2&#45;&gt;qij -->
<g id="edge6" class="edge"><title>params2:f0&#45;&gt;qij:f0</title>
<path fill="none" stroke="black" d="M347.5,-85.5C354.381,-85.5 383.49,-94.967 411.253,-104.572"/>
<polygon fill="black" stroke="black" points="410.384,-107.976 420.978,-107.96 412.686,-101.365 410.384,-107.976"/>
</g>
<!-- pij -->
<g id="node8" class="node"><title>pij</title>
<polygon fill="lightgrey" stroke="black" points="663,-47.5 663,-83.5 751,-83.5 751,-47.5 663,-47.5"/>
<text text-anchor="middle" x="707" y="-61.7" font-family="Times New Roman,serif" font-size="16.00">symmetrize</text>
</g>
<!-- params2&#45;&gt;pij -->
<g id="edge12" class="edge"><title>params2:f1&#45;&gt;pij:f0</title>
<path fill="none" stroke="black" d="M347.5,-59.5C455.561,-59.5 581.867,-62.2437 652.328,-64.0203"/>
<polygon fill="black" stroke="black" points="652.642,-67.5294 662.728,-64.2858 652.821,-60.5317 652.642,-67.5294"/>
</g>
<!-- params3 -->
<g id="node4" class="node"><title>params3</title>
<polygon fill="none" stroke="black" points="254,-117.5 254,-169.5 385,-169.5 385,-117.5 254,-117.5"/>
<text text-anchor="middle" x="319.5" y="-152.7" font-family="Times New Roman,serif" font-size="16.00">local_connectivity</text>
<polyline fill="none" stroke="black" points="254,-143.5 385,-143.5 "/>
<text text-anchor="middle" x="319.5" y="-126.7" font-family="Times New Roman,serif" font-size="16.00">perplexity</text>
</g>
<!-- params3&#45;&gt;qij -->
<g id="edge7" class="edge"><title>params3:f0&#45;&gt;qij:f0</title>
<path fill="none" stroke="black" d="M385,-156.5C385.116,-156.5 396.89,-151.916 411.481,-146.218"/>
<polygon fill="black" stroke="black" points="412.811,-149.456 420.851,-142.557 410.263,-142.936 412.811,-149.456"/>
</g>
<!-- params3&#45;&gt;qij -->
<g id="edge8" class="edge"><title>params3:f1&#45;&gt;qij:f0</title>
<path fill="none" stroke="black" d="M385,-130.5C393.22,-130.5 401.891,-130.196 410.394,-129.726"/>
<polygon fill="black" stroke="black" points="410.882,-133.202 420.642,-129.078 410.441,-126.216 410.882,-133.202"/>
</g>
<!-- params4 -->
<g id="node6" class="node"><title>params4</title>
<polygon fill="none" stroke="black" points="561,-100.5 561,-136.5 615,-136.5 615,-100.5 561,-100.5"/>
<text text-anchor="middle" x="588" y="-114.7" font-family="Times New Roman,serif" font-size="16.00">Q</text>
</g>
<!-- qij&#45;&gt;params4 -->
<g id="edge9" class="edge"><title>qij:f0&#45;&gt;params4:f0</title>
<path fill="none" stroke="black" d="M513.09,-122.215C525.591,-121.595 538.963,-120.932 550.898,-120.34"/>
<polygon fill="black" stroke="black" points="551.145,-123.832 560.959,-119.841 550.798,-116.841 551.145,-123.832"/>
</g>
<!-- params4&#45;&gt;pij -->
<g id="edge10" class="edge"><title>params4:f0&#45;&gt;pij:f0</title>
<path fill="none" stroke="black" d="M615.285,-105.381C626.591,-100.023 640.106,-93.7156 653.202,-87.843"/>
<polygon fill="black" stroke="black" points="654.904,-90.9171 662.626,-83.6636 652.066,-84.5181 654.904,-90.9171"/>
</g>
<!-- params5 -->
<g id="node7" class="node"><title>params5</title>
<polygon fill="none" stroke="black" points="549,-0.5 549,-36.5 627,-36.5 627,-0.5 549,-0.5"/>
<text text-anchor="middle" x="588" y="-14.7" font-family="Times New Roman,serif" font-size="16.00">mix_ratio</text>
</g>
<!-- params5&#45;&gt;pij -->
<g id="edge11" class="edge"><title>params5:f0&#45;&gt;pij:f0</title>
<path fill="none" stroke="black" d="M627.295,-34.0198C635.647,-37.3187 644.602,-40.8556 653.385,-44.3243"/>
<polygon fill="black" stroke="black" points="652.224,-47.6287 662.81,-48.0469 654.795,-41.1181 652.224,-47.6287"/>
</g>
<!-- params6 -->
<g id="node9" class="node"><title>params6</title>
<polygon fill="none" stroke="black" points="787,-47.5 787,-83.5 841,-83.5 841,-47.5 787,-47.5"/>
<text text-anchor="middle" x="814" y="-61.7" font-family="Times New Roman,serif" font-size="16.00">P</text>
</g>
<!-- pij&#45;&gt;params6 -->
<g id="edge13" class="edge"><title>pij:f0&#45;&gt;params6:f0</title>
<path fill="none" stroke="black" d="M751.139,-65.5C759.639,-65.5 768.464,-65.5 776.721,-65.5"/>
<polygon fill="black" stroke="black" points="776.807,-69.0001 786.807,-65.5 776.807,-62.0001 776.807,-69.0001"/>
</g>
</g>
</svg>
