<?xml version="1.0" encoding="UTF-8" standalone="no"?>
<!DOCTYPE svg PUBLIC "-//W3C//DTD SVG 1.1//EN"
 "http://www.w3.org/Graphics/SVG/1.1/DTD/svg11.dtd">
<!-- Generated by graphviz version 2.38.0 (20140413.2041)
 -->
<!-- Title: g Pages: 1 -->
<svg width="571pt" height="123pt"
 viewBox="0.00 0.00 571.42 123.00" xmlns="http://www.w3.org/2000/svg" xmlns:xlink="http://www.w3.org/1999/xlink">
<g id="graph0" class="graph" transform="scale(1 1) rotate(0) translate(4 119)">
<title>g</title>
<polygon fill="white" stroke="none" points="-4,4 -4,-119 567.421,-119 567.421,4 -4,4"/>
<!-- params1 -->
<g id="node1" class="node"><title>params1</title>
<polygon fill="none" stroke="black" points="0,-0.5 0,-36.5 54,-36.5 54,-0.5 0,-0.5"/>
<text text-anchor="middle" x="27" y="-14.7" font-family="Times New Roman,serif" font-size="16.00">P</text>
</g>
<!-- func_compute_pairs -->
<g id="node5" class="node"><title>func_compute_pairs</title>
<polygon fill="lightgrey" stroke="black" points="90,-0.5 90,-36.5 199,-36.5 199,-0.5 90,-0.5"/>
<text text-anchor="middle" x="144.5" y="-14.7" font-family="Times New Roman,serif" font-size="16.00">compute_pairs</text>
</g>
<!-- params1&#45;&gt;func_compute_pairs -->
<g id="edge1" class="edge"><title>params1:f0&#45;&gt;func_compute_pairs:f0</title>
<path fill="none" stroke="black" d="M54.2522,-18.5C61.9363,-18.5 70.641,-18.5 79.5378,-18.5"/>
<polygon fill="black" stroke="black" points="79.6202,-22.0001 89.6202,-18.5 79.6202,-15.0001 79.6202,-22.0001"/>
</g>
<!-- X_seed -->
<g id="node2" class="node"><title>X_seed</title>
<polygon fill="none" stroke="black" points="0,-62.5 0,-114.5 54,-114.5 54,-62.5 0,-62.5"/>
<text text-anchor="middle" x="27" y="-97.7" font-family="Times New Roman,serif" font-size="16.00">X</text>
<polyline fill="none" stroke="black" points="0,-88.5 54,-88.5 "/>
<text text-anchor="middle" x="27" y="-71.7" font-family="Times New Roman,serif" font-size="16.00">seed</text>
</g>
<!-- func_init_xy -->
<g id="node6" class="node"><title>func_init_xy</title>
<polygon fill="lightgrey" stroke="black" points="114.5,-65.5 114.5,-101.5 174.5,-101.5 174.5,-65.5 114.5,-65.5"/>
<text text-anchor="middle" x="144.5" y="-79.7" font-family="Times New Roman,serif" font-size="16.00">init_xy</text>
</g>
<!-- X_seed&#45;&gt;func_init_xy -->
<g id="edge3" class="edge"><title>X_seed:f0&#45;&gt;func_init_xy</title>
<path fill="none" stroke="black" d="M54,-101.5C70.7718,-101.5 88.9706,-98.4244 104.551,-94.8159"/>
<polygon fill="black" stroke="black" points="105.499,-98.187 114.37,-92.3945 103.823,-91.3906 105.499,-98.187"/>
</g>
<!-- X_seed&#45;&gt;func_init_xy -->
<g id="edge7" class="edge"><title>X_seed:f1&#45;&gt;func_init_xy</title>
<path fill="none" stroke="black" d="M54,-75.5C70.3509,-75.5 88.3156,-76.841 103.832,-78.425"/>
<polygon fill="black" stroke="black" points="103.812,-81.9435 114.133,-79.5469 104.57,-74.9846 103.812,-81.9435"/>
</g>
<!-- xy -->
<g id="node3" class="node"><title>xy</title>
<polygon fill="none" stroke="black" points="241.234,-65.5 241.234,-101.5 295.234,-101.5 295.234,-65.5 241.234,-65.5"/>
<text text-anchor="middle" x="268.234" y="-79.7" font-family="Times New Roman,serif" font-size="16.00">xy</text>
</g>
<!-- func_compute_nodes -->
<g id="node4" class="node"><title>func_compute_nodes</title>
<polygon fill="lightgrey" stroke="black" points="337.468,-65.5 337.468,-101.5 452.468,-101.5 452.468,-65.5 337.468,-65.5"/>
<text text-anchor="middle" x="394.968" y="-79.7" font-family="Times New Roman,serif" font-size="16.00">compute_nodes</text>
</g>
<!-- xy&#45;&gt;func_compute_nodes -->
<g id="edge5" class="edge"><title>xy&#45;&gt;func_compute_nodes:f0</title>
<path fill="none" stroke="black" d="M295.286,-83.5C304.744,-83.5 315.918,-83.5 327.303,-83.5"/>
<polygon fill="black" stroke="black" points="327.325,-87.0001 337.325,-83.5 327.325,-80.0001 327.325,-87.0001"/>
</g>
<!-- nodes -->
<g id="node8" class="node"><title>nodes</title>
<ellipse fill="none" stroke="black" cx="525.945" cy="-83.5" rx="37.4533" ry="18.2703"/>
<text text-anchor="middle" x="525.945" y="-79.7" font-family="Times New Roman,serif" font-size="16.00">nodes</text>
</g>
<!-- func_compute_nodes&#45;&gt;nodes -->
<g id="edge6" class="edge"><title>func_compute_nodes:f0&#45;&gt;nodes</title>
<path fill="none" stroke="black" d="M452.735,-83.5C461.22,-83.5 469.872,-83.5 478.102,-83.5"/>
<polygon fill="black" stroke="black" points="478.256,-87.0001 488.256,-83.5 478.256,-80.0001 478.256,-87.0001"/>
</g>
<!-- pairs -->
<g id="node7" class="node"><title>pairs</title>
<ellipse fill="none" stroke="black" cx="268.234" cy="-18.5" rx="33.4697" ry="18.2703"/>
<text text-anchor="middle" x="268.234" y="-14.7" font-family="Times New Roman,serif" font-size="16.00">pairs</text>
</g>
<!-- func_compute_pairs&#45;&gt;pairs -->
<g id="edge2" class="edge"><title>func_compute_pairs:f0&#45;&gt;pairs</title>
<path fill="none" stroke="black" d="M199.048,-18.5C207.601,-18.5 216.332,-18.5 224.568,-18.5"/>
<polygon fill="black" stroke="black" points="224.682,-22.0001 234.682,-18.5 224.682,-15.0001 224.682,-22.0001"/>
</g>
<!-- func_init_xy&#45;&gt;xy -->
<g id="edge4" class="edge"><title>func_init_xy&#45;&gt;xy</title>
<path fill="none" stroke="black" d="M174.658,-83.5C191.593,-83.5 213.07,-83.5 231.074,-83.5"/>
<polygon fill="black" stroke="black" points="231.212,-87.0001 241.212,-83.5 231.212,-80.0001 231.212,-87.0001"/>
</g>
</g>
</svg>
